<?xml version="1.0" encoding="UTF-8"?>
<svg xmlns="http://www.w3.org/2000/svg" xmlns:xlink="http://www.w3.org/1999/xlink"
     viewBox="0 0 900 900" width="900" height="900">
  <defs>
    <path id="sp"
      transform="matrix(0.04889976 0 0 -0.04889976 -109.290954 109.290954)"
      fill="#221D5C" d="M2234 4280 c-23 0 -43 -8 -59 -24 -13 -13 -29 -43 -35 -67 -6 -24 -29 -96 -50 -161 -21 -64 -64 -172 -94 -239 -31 -68 -83 -171 -116 -229 -34 -58 -89 -144 -123 -192 -34 -47 -90 -122 -124 -165 -34 -43 -122 -137 -195 -209 -73 -71 -179 -165 -234 -206 -56 -42 -139 -101 -185 -131 -46 -30 -127 -78 -179 -105 -52 -28 -147 -73 -211 -101 -64 -27 -170 -66 -235 -86 -65 -20 -132 -41 -147 -47 -15 -6 -34 -20 -42 -32 -8 -11 -15 -33 -15 -49 0 -16 5 -37 10 -47 6 -11 19 -24 29 -30 11 -5 73 -26 138 -46 65 -19 168 -56 228 -80 61 -25 161 -72 224 -105 63 -33 152 -85 199 -115 47 -30 130 -90 186 -132 55 -41 161 -135 234 -206 73 -72 161 -166 195 -209 34 -43 90 -118 124 -165 34 -48 89 -134 123 -192 33 -58 85 -161 116 -229 30 -67 73 -175 94 -239 21 -65 44 -137 50 -161 6 -24 22 -54 35 -67 16 -16 36 -24 59 -24 22 0 44 8 59 23 18 15 35 58 61 146 21 69 57 175 82 235 25 61 72 162 105 225 33 63 85 152 115 199 30 47 89 130 131 186 42 55 144 169 227 252 87 88 199 187 266 237 63 47 156 111 205 142 50 31 153 88 230 125 77 37 183 84 235 103 52 19 138 47 190 62 66 18 102 34 118 51 14 16 22 38 22 60 0 23 -8 43 -24 59 -13 13 -43 29 -67 35 -24 6 -96 29 -160 50 -64 21 -173 64 -243 96 -70 31 -183 90 -251 130 -68 41 -179 115 -247 165 -76 57 -181 149 -274 243 -87 87 -188 200 -237 266 -47 63 -111 156 -142 205 -31 50 -88 153 -125 230 -37 77 -84 183 -103 235 -19 52 -47 138 -62 190 -18 66 -34 102 -51 118 -16 14 -38 22 -60 22z"/>
  </defs>
  <use href="#sp" xlink:href="#sp" transform="translate(450,52) scale(0.27)"/>
  <use href="#sp" xlink:href="#sp" transform="translate(426,102) scale(0.27)"/>
  <use href="#sp" xlink:href="#sp" transform="translate(479,119) scale(0.27)"/>
  <use href="#sp" xlink:href="#sp" transform="translate(396,172) scale(0.27)"/>
  <use href="#sp" xlink:href="#sp" transform="translate(450,172) scale(0.27)"/>
  <use href="#sp" xlink:href="#sp" transform="translate(504,173) scale(0.27)"/>
  <use href="#sp" xlink:href="#sp" transform="translate(364,225) scale(0.27)"/>
  <use href="#sp" xlink:href="#sp" transform="translate(539,229) scale(0.27)"/>
  <use href="#sp" xlink:href="#sp" transform="translate(423,231) scale(0.27)"/>
  <use href="#sp" xlink:href="#sp" transform="translate(480,239) scale(0.27)"/>
  <use href="#sp" xlink:href="#sp" transform="translate(450,275) scale(0.27)"/>
  <use href="#sp" xlink:href="#sp" transform="translate(324,277) scale(0.27)"/>
  <use href="#sp" xlink:href="#sp" transform="translate(579,279) scale(0.27)"/>
  <use href="#sp" xlink:href="#sp" transform="translate(390,293) scale(0.27)"/>
  <use href="#sp" xlink:href="#sp" transform="translate(513,295) scale(0.27)"/>
  <use href="#sp" xlink:href="#sp" transform="translate(279,321) scale(0.27)"/>
  <use href="#sp" xlink:href="#sp" transform="translate(623,324) scale(0.27)"/>
  <use href="#sp" xlink:href="#sp" transform="translate(422,328) scale(0.27)"/>
  <use href="#sp" xlink:href="#sp" transform="translate(480,331) scale(0.27)"/>
  <use href="#sp" xlink:href="#sp" transform="translate(345,345) scale(0.27)"/>
  <use href="#sp" xlink:href="#sp" transform="translate(555,345) scale(0.27)"/>
  <use href="#sp" xlink:href="#sp" transform="translate(229,361) scale(0.27)"/>
  <use href="#sp" xlink:href="#sp" transform="translate(675,364) scale(0.27)"/>
  <use href="#sp" xlink:href="#sp" transform="translate(450,378) scale(0.27)"/>
  <use href="#sp" xlink:href="#sp" transform="translate(381,381) scale(0.27)"/>
  <use href="#sp" xlink:href="#sp" transform="translate(519,381) scale(0.27)"/>
  <use href="#sp" xlink:href="#sp" transform="translate(295,387) scale(0.27)"/>
  <use href="#sp" xlink:href="#sp" transform="translate(607,390) scale(0.27)"/>
  <use href="#sp" xlink:href="#sp" transform="translate(173,396) scale(0.27)"/>
  <use href="#sp" xlink:href="#sp" transform="translate(728,396) scale(0.27)"/>
  <use href="#sp" xlink:href="#sp" transform="translate(239,420) scale(0.27)"/>
  <use href="#sp" xlink:href="#sp" transform="translate(331,420) scale(0.27)"/>
  <use href="#sp" xlink:href="#sp" transform="translate(119,421) scale(0.27)"/>
  <use href="#sp" xlink:href="#sp" transform="translate(572,422) scale(0.27)"/>
  <use href="#sp" xlink:href="#sp" transform="translate(423,423) scale(0.27)"/>
  <use href="#sp" xlink:href="#sp" transform="translate(477,423) scale(0.27)"/>
  <use href="#sp" xlink:href="#sp" transform="translate(669,423) scale(0.27)"/>
  <use href="#sp" xlink:href="#sp" transform="translate(798,426) scale(0.27)"/>
  <use href="#sp" xlink:href="#sp" transform="translate(52,450) scale(0.27)"/>
  <use href="#sp" xlink:href="#sp" transform="translate(172,450) scale(0.27)"/>
  <use href="#sp" xlink:href="#sp" transform="translate(378,450) scale(0.27)"/>
  <use href="#sp" xlink:href="#sp" transform="translate(522,450) scale(0.27)"/>
  <use href="#sp" xlink:href="#sp" transform="translate(728,450) scale(0.27)"/>
  <use href="#sp" xlink:href="#sp" transform="translate(848,450) scale(0.27)"/>
  <use href="#sp" xlink:href="#sp" transform="translate(275,450) scale(0.27)"/>
  <use href="#sp" xlink:href="#sp" transform="translate(625,450) scale(0.27)"/>
  <use href="#sp" xlink:href="#sp" transform="translate(102,474) scale(0.27)"/>
  <use href="#sp" xlink:href="#sp" transform="translate(231,477) scale(0.27)"/>
  <use href="#sp" xlink:href="#sp" transform="translate(423,477) scale(0.27)"/>
  <use href="#sp" xlink:href="#sp" transform="translate(477,477) scale(0.27)"/>
  <use href="#sp" xlink:href="#sp" transform="translate(328,478) scale(0.27)"/>
  <use href="#sp" xlink:href="#sp" transform="translate(781,479) scale(0.27)"/>
  <use href="#sp" xlink:href="#sp" transform="translate(569,480) scale(0.27)"/>
  <use href="#sp" xlink:href="#sp" transform="translate(661,480) scale(0.27)"/>
  <use href="#sp" xlink:href="#sp" transform="translate(172,504) scale(0.27)"/>
  <use href="#sp" xlink:href="#sp" transform="translate(727,504) scale(0.27)"/>
  <use href="#sp" xlink:href="#sp" transform="translate(293,510) scale(0.27)"/>
  <use href="#sp" xlink:href="#sp" transform="translate(605,513) scale(0.27)"/>
  <use href="#sp" xlink:href="#sp" transform="translate(381,519) scale(0.27)"/>
  <use href="#sp" xlink:href="#sp" transform="translate(519,519) scale(0.27)"/>
  <use href="#sp" xlink:href="#sp" transform="translate(450,522) scale(0.27)"/>
  <use href="#sp" xlink:href="#sp" transform="translate(225,536) scale(0.27)"/>
  <use href="#sp" xlink:href="#sp" transform="translate(671,539) scale(0.27)"/>
  <use href="#sp" xlink:href="#sp" transform="translate(345,555) scale(0.27)"/>
  <use href="#sp" xlink:href="#sp" transform="translate(555,555) scale(0.27)"/>
  <use href="#sp" xlink:href="#sp" transform="translate(420,569) scale(0.27)"/>
  <use href="#sp" xlink:href="#sp" transform="translate(478,572) scale(0.27)"/>
  <use href="#sp" xlink:href="#sp" transform="translate(277,576) scale(0.27)"/>
  <use href="#sp" xlink:href="#sp" transform="translate(621,579) scale(0.27)"/>
  <use href="#sp" xlink:href="#sp" transform="translate(387,605) scale(0.27)"/>
  <use href="#sp" xlink:href="#sp" transform="translate(510,607) scale(0.27)"/>
  <use href="#sp" xlink:href="#sp" transform="translate(321,621) scale(0.27)"/>
  <use href="#sp" xlink:href="#sp" transform="translate(576,623) scale(0.27)"/>
  <use href="#sp" xlink:href="#sp" transform="translate(450,625) scale(0.27)"/>
  <use href="#sp" xlink:href="#sp" transform="translate(420,661) scale(0.27)"/>
  <use href="#sp" xlink:href="#sp" transform="translate(477,669) scale(0.27)"/>
  <use href="#sp" xlink:href="#sp" transform="translate(361,671) scale(0.27)"/>
  <use href="#sp" xlink:href="#sp" transform="translate(536,675) scale(0.27)"/>
  <use href="#sp" xlink:href="#sp" transform="translate(396,727) scale(0.27)"/>
  <use href="#sp" xlink:href="#sp" transform="translate(450,728) scale(0.27)"/>
  <use href="#sp" xlink:href="#sp" transform="translate(504,728) scale(0.27)"/>
  <use href="#sp" xlink:href="#sp" transform="translate(421,781) scale(0.27)"/>
  <use href="#sp" xlink:href="#sp" transform="translate(474,798) scale(0.27)"/>
  <use href="#sp" xlink:href="#sp" transform="translate(450,848) scale(0.27)"/>
</svg>